<svg xmlns="http://www.w3.org/2000/svg" height="40" viewBox="0 96 960 960" width="40"><path d="M245.785 801.192q54.92-36.346 110.875-56.846t123.34-20.5q67.385 0 123.25 20.5 55.866 20.5 111.763 56.846 42.09-45.115 65.91-101.689 23.821-56.573 23.821-123.46 0-135.646-94.571-230.216-94.57-94.571-230.173-94.571t-230.173 94.571q-94.571 94.57-94.571 230.216 0 66.887 23.898 123.46 23.897 56.574 66.631 101.689ZM479.95 592.359q-50.437 0-84.424-34.037-33.988-34.038-33.988-84.475t34.038-84.424q34.037-33.987 84.474-33.987 50.437 0 84.424 34.037 33.988 34.038 33.988 84.475t-34.038 84.424q-34.037 33.987-84.474 33.987Zm-.22 340.821q-73.517 0-139.249-28.02-65.732-28.019-113.767-76.423T150.75 715.331q-27.93-65.003-27.93-139.622 0-74.572 28.02-139.752 28.019-65.181 76.423-113.319 48.404-48.138 113.406-75.978 65.002-27.84 139.622-27.84 74.572 0 139.756 27.932 65.185 27.932 113.319 76.09t75.974 113.331q27.84 65.173 27.84 139.607 0 74.644-27.853 139.711-27.853 65.066-76.09 113.371Q685 877.167 619.728 905.173 554.455 933.18 479.73 933.18Z"/></svg>