<svg xmlns="http://www.w3.org/2000/svg" height="25" fill="#665636" viewBox="0 96 960 960" width="40"><path d="M362.512 811.642q-23.771 0-41.18-16.477-17.41-16.477-17.41-40.575V301.461q0-24.098 17.41-40.575 17.409-16.476 41.18-16.476h332.655q23.136 0 40.094 16.701 16.957 16.701 16.957 40.35V754.59q0 23.137-16.957 40.094-16.958 16.958-40.094 16.958H362.512Zm-106.41 104.871q-23.136 0-40.094-16.957-16.957-16.958-16.957-40.094v-448.36q0-7.141 4.759-11.859t11.603-4.718q6.843 0 11.458 4.718 4.616 4.718 4.616 11.859v448.36q0 9.231 7.692 16.923 7.692 7.692 16.923 7.692h326.219q6.315 0 11.087 4.814 4.772 4.813 4.772 11.189 0 7.202-4.772 11.818-4.772 4.615-11.087 4.615H256.102Z"/></svg>