<svg width="25" height="25" viewBox="0 0 25 25" fill="none" xmlns="http://www.w3.org/2000/svg">
<path d="M0 4C0 1.79086 1.79086 0 4 0H7C9.20914 0 11 1.79086 11 4V11H4C1.79086 11 0 9.20914 0 7V4Z" fill="white"/>
<path d="M0 18C0 15.7909 1.79086 14 4 14H11V21C11 23.2091 9.20914 25 7 25H4C1.79086 25 0 23.2091 0 21V18Z" fill="white"/>
<path d="M14 4C14 1.79086 15.7909 0 18 0H21C23.2091 0 25 1.79086 25 4V7C25 9.20914 23.2091 11 21 11H14V4Z" fill="white"/>
<path d="M14 14H21C23.2091 14 25 15.7909 25 18V21C25 23.2091 23.2091 25 21 25H18C15.7909 25 14 23.2091 14 21V14Z" fill="white"/>
</svg>
