<svg width="158" height="126" viewBox="0 0 158 126" fill="none" xmlns="http://www.w3.org/2000/svg">
<path d="M67.7669 0L43.4592 88.9412L35.3566 55.5882C45.9145 55.5882 54.5082 58.6765 61.1375 64.8529C67.7669 71.0294 71.0816 79.5529 71.0816 90.4235C71.0816 101.047 67.6441 109.694 60.7692 116.365C54.1399 122.788 45.7918 126 35.7249 126C25.4126 126 16.819 122.788 9.94406 116.365C3.31469 109.694 0 101.047 0 90.4235C0 87.2118 0.245532 84.1235 0.736597 81.1588C1.22766 77.9471 2.20979 74.2412 3.68298 70.0412C5.15618 65.8412 7.2432 60.2823 9.94406 53.3647L31.3054 0H67.7669ZM154.685 0L130.378 88.9412L122.275 55.5882C132.833 55.5882 141.427 58.6765 148.056 64.8529C154.685 71.0294 158 79.5529 158 90.4235C158 101.047 154.563 109.694 147.688 116.365C141.058 122.788 132.71 126 122.643 126C112.331 126 103.737 122.788 96.8625 116.365C90.2331 109.694 86.9184 101.047 86.9184 90.4235C86.9184 87.2118 87.1639 84.1235 87.655 81.1588C88.1461 77.9471 89.1282 74.2412 90.6014 70.0412C92.0746 65.8412 94.1616 60.2823 96.8625 53.3647L118.224 0H154.685Z" fill="#f5b8b86b" fill-opacity="0.74"/>
</svg>
