<svg xmlns="http://www.w3.org/2000/svg" height="40" fill="#665636" viewBox="0 96 960 960" width="40"><path d="M721.018 953.462q-40.262 0-68.473-28.387-28.212-28.387-28.212-68.439 0-7.95 1.462-17.424 1.461-9.473 4.897-17.135l-316.231-186.18q-13.563 17.475-33.496 27.251-19.933 9.775-41.795 9.775-40.448 0-68.681-28.404-28.233-28.405-28.233-68.983 0-40.161 28.403-68.31 28.402-28.149 68.552-28.149 22.501 0 41.927 9.205t33.323 26.564l316.231-185.297q-3.436-7.731-4.897-16.813-1.462-9.081-1.462-17.557 0-40.162 28.45-68.542 28.45-28.381 68.712-28.381t68.473 28.235q28.212 28.234 28.212 68.345 0 41.212-28.403 69.239-28.402 28.028-68.719 28.028-22.274 0-41.493-8.802-19.219-8.801-33.437-26.275L330.41 540.846q2.769 7.414 4.234 17.265 1.464 9.852 1.464 17.929 0 8.078-1.464 16.892-1.465 8.813-4.234 16.65l315.718 184.444q14.077-15.988 33.099-25.199 19.021-9.212 42.039-9.212 40.448 0 68.681 27.838 28.233 27.837 28.233 68.521 0 41.217-28.45 69.353-28.45 28.135-68.712 28.135Z"/></svg>